<?xml version="1.0" encoding="UTF-8" standalone="no"?>
<svg
   xmlns:dc="http://purl.org/dc/elements/1.1/"
   xmlns:cc="http://creativecommons.org/ns#"
   xmlns:rdf="http://www.w3.org/1999/02/22-rdf-syntax-ns#"
   xmlns:svg="http://www.w3.org/2000/svg"
   xmlns="http://www.w3.org/2000/svg"
   viewBox="0 0 880.09332 247.90134"
   height="247.90134"
   width="880.09332"
   xml:space="preserve"
   id="svg2"
   version="1.1"><metadata
     id="metadata8"><rdf:RDF><cc:Work
         rdf:about=""><dc:format>image/svg+xml</dc:format><dc:type
           rdf:resource="http://purl.org/dc/dcmitype/StillImage" /></cc:Work></rdf:RDF></metadata><defs
     id="defs6"><clipPath
       id="clipPath18"
       clipPathUnits="userSpaceOnUse"><path
         id="path16"
         d="M 0,185.926 H 660.07 V 0 H 0 Z" /></clipPath></defs><g
     transform="matrix(1.3333333,0,0,-1.3333333,0,247.90133)"
     id="g10"><g
       id="g12"><g
         clip-path="url(#clipPath18)"
         id="g14"><g
           transform="translate(137.8821,78.2504)"
           id="g20"><path
             id="path22"
             style="fill:#24376d;fill-opacity:1;fill-rule:nonzero;stroke:none"
             d="M 0,0 C 16.371,3.542 24.894,18.235 24.893,32.195 24.892,45.552 18.006,57.326 6.925,62.923 1.4,65.721 -5.957,66.969 -16.929,66.968 l -23.103,-0.001 c -1.669,0 -3.02,-1.353 -3.02,-3.017 l 0.004,-61.259 c 0,-7.002 -1.006,-12.99 -2.764,-16.443 -3.494,-6.925 -8.948,-10.437 -16.214,-10.437 -7.267,0 -12.726,3.511 -16.225,10.449 -1.752,3.433 -2.759,9.425 -2.759,16.429 l -0.004,61.259 c 0,1.664 -1.349,3.016 -3.018,3.016 h -9.139 c -1.668,0 -3.017,-1.353 -3.017,-3.017 l 0.004,-61.259 c 0,-8.517 1.282,-16.004 3.701,-21.644 7.996,-18.715 25.335,-20.167 30.458,-20.167 5.122,0 22.459,1.455 30.451,20.163 2.427,5.648 3.704,13.133 3.704,21.652 l -0.003,49.338 12.796,10e-4 c 7.043,0 11.28,-0.496 16.371,-3.358 C 6.171,46.048 9.713,39.231 9.713,32.461 9.714,25.989 6.327,17.4 -3.276,14.468 c -3.561,-1.16 -6.989,-1.315 -18.715,-1.315 -1.122,0 -2.154,-0.626 -2.674,-1.621 -0.521,-0.997 -0.446,-2.2 0.199,-3.123 l 31.021,-44.51 c 0.563,-0.809 1.489,-1.292 2.476,-1.292 l 11.49,10e-4 c 1.127,0 2.158,0.627 2.679,1.626 0.516,1.002 0.436,2.207 -0.213,3.128 z" /></g><g
           transform="translate(234.1481,101.1729)"
           id="g24"><path
             id="path26"
             style="fill:#24376d;fill-opacity:1;fill-rule:nonzero;stroke:none"
             d="m 0,0 c 2.064,0 9.043,0.585 12.261,8.125 0.994,2.312 1.52,5.401 1.52,8.936 L 13.78,43.285 c 0,0.248 -0.201,0.45 -0.449,0.45 H 9.415 c -0.248,0 -0.448,-0.202 -0.448,-0.45 L 8.968,17.061 C 8.968,13.889 8.515,11.255 7.696,9.641 6.068,6.416 3.407,4.711 0,4.711 c -3.405,0 -6.07,1.704 -7.697,4.929 -0.819,1.61 -1.273,4.246 -1.273,7.42 l -0.002,26.224 c 0,0.248 -0.197,0.45 -0.445,0.45 h -3.921 c -0.248,0 -0.447,-0.203 -0.447,-0.451 l 0.002,-26.223 c 0,-3.536 0.527,-6.625 1.518,-8.937 C -9.043,0.584 -2.059,0 0,0" /></g><g
           transform="translate(286.4414,144.9106)"
           id="g28"><path
             id="path30"
             style="fill:#24376d;fill-opacity:1;fill-rule:nonzero;stroke:none"
             d="m 0,0 h -3.911 c -0.248,0 -0.451,-0.203 -0.451,-0.451 l 0.002,-33.534 -21.128,33.773 c -0.085,0.13 -0.226,0.21 -0.381,0.21 h -5.292 c -0.247,0 -0.45,-0.202 -0.45,-0.45 l 0.002,-42.096 c 0,-0.248 0.204,-0.451 0.45,-0.451 h 3.918 c 0.248,0 0.448,0.203 0.448,0.451 l -0.002,35.645 22.503,-35.884 c 0.082,-0.128 0.225,-0.21 0.383,-0.21 h 3.912 c 0.247,0 0.448,0.202 0.448,0.45 L 0.448,-0.45 C 0.448,-0.202 0.248,0 0,0" /></g><g
           transform="translate(298.2164,144.9114)"
           id="g32"><path
             id="path34"
             style="fill:#24376d;fill-opacity:1;fill-rule:nonzero;stroke:none"
             d="m 0,0 h -3.92 c -0.248,0 -0.448,-0.203 -0.448,-0.451 l 0.003,-42.096 c 0,-0.248 0.199,-0.45 0.447,-0.45 h 3.921 c 0.247,0 0.444,0.202 0.444,0.45 L 0.444,-0.45 C 0.444,-0.203 0.248,0 0,0" /></g><g
           transform="translate(321.3031,101.9156)"
           id="g36"><path
             id="path38"
             style="fill:#24376d;fill-opacity:1;fill-rule:nonzero;stroke:none"
             d="m 0,0 h 3.861 c 0.186,0 0.352,0.116 0.416,0.29 l 16.242,42.097 c 0.05,0.138 0.034,0.293 -0.051,0.415 -0.078,0.124 -0.22,0.196 -0.367,0.196 h -4.234 c -0.186,0 -0.355,-0.118 -0.421,-0.291 L 2.013,6.961 -11.383,42.705 c -0.065,0.174 -0.231,0.291 -0.416,0.291 h -4.343 c -0.147,0 -0.282,-0.072 -0.366,-0.196 -0.085,-0.122 -0.101,-0.277 -0.049,-0.416 L -0.42,0.289 C -0.352,0.116 -0.186,0 0,0" /></g><g
           transform="translate(368.6171,106.6273)"
           id="g40"><path
             id="path42"
             style="fill:#24376d;fill-opacity:1;fill-rule:nonzero;stroke:none"
             d="m 0,0 -17.06,-0.001 -0.001,14.635 16.483,10e-4 c 0.248,0 0.447,0.2 0.447,0.452 v 3.81 c 0,0.248 -0.2,0.446 -0.448,0.446 h -16.482 l -0.001,14.235 17.06,10e-4 c 0.248,0 0.447,0.201 0.447,0.449 v 3.81 c 0,0.248 -0.199,0.45 -0.447,0.45 l -21.425,-10e-4 c -0.248,0 -0.446,-0.203 -0.446,-0.451 L -21.87,-4.26 c 0,-0.248 0.197,-0.45 0.445,-0.45 L 0,-4.709 c 0.248,0 0.448,0.203 0.448,0.451 l -0.001,3.81 C 0.447,-0.2 0.248,0 0,0" /></g><g
           transform="translate(397.3195,101.9201)"
           id="g44"><path
             id="path46"
             style="fill:#24376d;fill-opacity:1;fill-rule:nonzero;stroke:none"
             d="M 0,0 H 4.918 C 5.084,0 5.239,0.095 5.311,0.242 5.393,0.393 5.379,0.573 5.283,0.711 L -5.328,15.779 c 7.406,0.899 11.274,7.201 11.274,13.173 0,5.401 -2.768,10.155 -7.232,12.404 -1.507,0.763 -3.982,1.641 -9.826,1.64 h -9.95 c -0.248,0 -0.447,-0.203 -0.447,-0.451 l 0.002,-42.096 c 0,-0.248 0.2,-0.45 0.448,-0.45 h 3.917 c 0.248,0 0.448,0.202 0.448,0.45 l -0.002,37.838 6.375,10e-4 c 3.099,0 5.092,-0.236 7.405,-1.539 2.348,-1.262 4.052,-4.492 4.052,-7.682 0,-3.06 -1.607,-7.12 -6.141,-8.509 -1.718,-0.556 -3.433,-0.599 -8.28,-0.6 -0.163,0 -0.318,-0.097 -0.397,-0.243 -0.076,-0.149 -0.064,-0.327 0.034,-0.463 L -0.369,0.194 C -0.284,0.074 -0.147,0 0,0" /></g><g
           transform="translate(421.2996,101.1839)"
           id="g48"><path
             id="path50"
             style="fill:#24376d;fill-opacity:1;fill-rule:nonzero;stroke:none"
             d="m 0,0 c 6.869,0 12.25,5.623 12.25,12.815 -10e-4,2.922 -0.964,9.996 -9.894,12.58 l -0.29,0.091 c -5.055,1.566 -8.705,2.698 -8.705,7.386 -10e-4,3.341 2.324,6.895 6.637,6.896 3.514,0 6.486,-3.287 6.486,-7.176 0,-0.248 0.197,-0.448 0.445,-0.448 h 3.92 c 0.247,0 0.448,0.2 0.448,0.448 0,6.664 -4.966,11.885 -11.3,11.884 -6.525,0 -11.447,-5.062 -11.446,-11.773 0,-8.236 6.173,-10.174 9.862,-11.329 l 0.953,-0.301 C 2.187,20.178 7.436,18.511 7.437,12.625 7.437,7.672 3.652,4.711 0,4.711 c -4.546,0 -7.495,3.169 -7.697,8.27 -0.011,0.24 -0.209,0.432 -0.449,0.432 h -3.916 c -0.119,0 -0.235,-0.048 -0.316,-0.136 -0.085,-0.083 -0.132,-0.203 -0.132,-0.321 C -12.406,6.716 -8.446,-0.001 0,0" /></g><g
           transform="translate(445.7553,144.9199)"
           id="g52"><path
             id="path54"
             style="fill:#24376d;fill-opacity:1;fill-rule:nonzero;stroke:none"
             d="M 0,0 H -3.911 C -4.159,0 -4.36,-0.203 -4.36,-0.451 l 0.003,-42.096 c 0,-0.248 0.2,-0.45 0.448,-0.45 h 3.912 c 0.25,0 0.45,0.202 0.45,0.45 L 0.45,-0.45 C 0.45,-0.202 0.251,0 0,0" /></g><g
           transform="translate(453.5006,140.2116)"
           id="g56"><path
             id="path58"
             style="fill:#24376d;fill-opacity:1;fill-rule:nonzero;stroke:none"
             d="m 0,0 8.544,0.001 0.002,-37.838 c 0,-0.248 0.202,-0.451 0.45,-0.451 h 3.915 c 0.248,10e-4 0.445,0.203 0.445,0.451 L 13.354,10e-4 h 8.494 c 0.248,0 0.447,0.201 0.447,0.449 v 3.81 c 0,0.248 -0.2,0.45 -0.448,0.45 L 0,4.709 c -0.248,0 -0.449,-0.203 -0.449,-0.451 l 0.001,-3.81 C -0.448,0.2 -0.248,0 0,0" /></g><g
           transform="translate(484.6235,101.9252)"
           id="g60"><path
             id="path62"
             style="fill:#24376d;fill-opacity:1;fill-rule:nonzero;stroke:none"
             d="m 0,0 21.423,0.001 c 0.248,0 0.447,0.203 0.447,0.451 v 3.81 c 0,0.248 -0.199,0.448 -0.447,0.448 L 4.362,4.709 v 14.635 l 16.479,10e-4 c 0.248,0 0.452,0.2 0.452,0.452 v 3.81 c 0,0.248 -0.204,0.447 -0.452,0.447 L 4.361,24.053 4.36,38.288 21.421,38.289 c 0.248,0 0.447,0.201 0.447,0.449 v 3.81 c 0,0.248 -0.2,0.45 -0.447,0.45 L -0.003,42.997 c -0.249,0 -0.447,-0.202 -0.447,-0.45 L -0.447,0.45 C -0.447,0.202 -0.25,0 0,0" /></g><g
           transform="translate(490.6789,146.652)"
           id="g64"><path
             id="path66"
             style="fill:#24376d;fill-opacity:1;fill-rule:nonzero;stroke:none"
             d="m 0,0 c 0.057,-0.108 0.158,-0.188 0.273,-0.219 0.042,-0.015 0.081,-0.021 0.124,-0.021 0.076,0 0.155,0.021 0.223,0.062 l 10.475,6.09 c 0.203,0.122 0.282,0.374 0.178,0.587 L 9.58,9.912 C 9.523,10.026 9.422,10.108 9.306,10.145 9.186,10.18 9.058,10.164 8.949,10.1 L -1.58,3.899 C -1.786,3.777 -1.859,3.512 -1.746,3.301 Z" /></g><g
           transform="translate(350.3293,55.2881)"
           id="g68"><path
             id="path70"
             style="fill:#24376d;fill-opacity:1;fill-rule:nonzero;stroke:none"
             d="m 0,0 h -6.892 l 3.447,11.461 z M 0.857,24.947 C 0.795,25.116 0.629,25.23 0.443,25.23 h -7.781 c -0.185,0 -0.35,-0.114 -0.417,-0.284 l -15.481,-38.572 -10e-4,8.426 c 0,0.246 -0.199,0.446 -0.447,0.446 h -10.991 l -0.002,29.534 c 0,0.247 -0.203,0.448 -0.451,0.448 l -9.873,-0.001 c -0.248,0 -0.446,-0.2 -0.446,-0.448 l 0.002,-38.658 c 10e-4,-0.248 0.198,-0.448 0.446,-0.448 l 21.315,10e-4 c 0.208,0 0.354,0.154 0.405,0.345 0.013,-0.051 0.024,-0.102 0.054,-0.147 0.085,-0.122 0.223,-0.198 0.372,-0.198 l 10.604,0.001 c 0.188,0 0.357,0.119 0.422,0.297 l 1.929,5.294 H 2.887 l 1.78,-5.283 c 0.062,-0.183 0.231,-0.307 0.425,-0.307 h 10.71 0.019 c 0.248,0 0.449,0.201 0.449,0.449 0,0.105 -0.034,0.198 -0.091,0.272 z" /></g><g
           transform="translate(405.2186,66.1801)"
           id="g72"><path
             id="path74"
             style="fill:#24376d;fill-opacity:1;fill-rule:nonzero;stroke:none"
             d="M 0,0 C 0,-2.322 -1.047,-5.091 -6.03,-5.091 L -9.079,-5.092 -9.08,4.77 h 3.154 C -3.712,4.77 0,4.151 0,0 m 1.104,-11.901 c 7.277,1.614 9.246,8.527 9.245,12.474 0,4.401 -1.842,8.477 -4.926,10.905 -2.464,1.896 -5.027,2.863 -12.188,2.863 l -12.22,-10e-4 c -0.248,0 -0.447,-0.2 -0.447,-0.448 l 0.002,-38.658 c 0,-0.248 0.2,-0.449 0.448,-0.449 l 9.453,0.001 c 0.248,0 0.451,0.2 0.451,0.448 l -0.001,11.232 8.224,-11.49 c 0.082,-0.117 0.217,-0.19 0.364,-0.19 l 11.284,10e-4 c 0.168,0 0.327,0.099 0.4,0.256 0.078,0.155 0.056,0.339 -0.051,0.476 z" /></g><g
           transform="translate(423.6404,87.3986)"
           id="g76"><path
             id="path78"
             style="fill:#24376d;fill-opacity:1;fill-rule:nonzero;stroke:none"
             d="m 0,0 2.459,-5.116 c 0.076,-0.161 0.24,-0.254 0.406,-0.254 0.061,0 0.123,0.015 0.183,0.039 l 12.847,5.689 c 0.109,0.048 0.191,0.141 0.237,0.253 0.044,0.109 0.039,0.235 -0.012,0.343 L 13.354,7.117 C 13.304,7.23 13.208,7.317 13.09,7.36 12.971,7.4 12.842,7.387 12.734,7.329 L 0.194,0.591 C -0.017,0.475 -0.101,0.217 0,0" /></g><g
           transform="translate(441.8104,50.5392)"
           id="g80"><path
             id="path82"
             style="fill:#24376d;fill-opacity:1;fill-rule:nonzero;stroke:none"
             d="m 0,0 -11.566,-0.001 -10e-4,5.736 11.203,10e-4 c 0.248,0 0.445,0.202 0.445,0.45 v 8.672 c 0,0.248 -0.198,0.448 -0.446,0.448 h -11.202 l -10e-4,5.107 11.567,0.001 c 0.247,0 0.447,0.2 0.447,0.448 v 8.674 c 0,0.248 -0.201,0.448 -0.448,0.448 l -21.47,-0.001 c -0.248,0 -0.449,-0.201 -0.449,-0.448 l 0.003,-38.658 c 0,-0.248 0.2,-0.449 0.448,-0.449 L 0,-9.57 c 0.247,0 0.448,0.2 0.448,0.448 L 0.447,-0.448 C 0.447,-0.2 0.247,0 0,0" /></g><g
           transform="translate(477.483,80.5256)"
           id="g84"><path
             id="path86"
             style="fill:#24376d;fill-opacity:1;fill-rule:nonzero;stroke:none"
             d="m 0,0 -9.87,-0.001 c -0.248,0 -0.45,-0.2 -0.45,-0.448 l 10e-4,-23.35 c 0,-3.083 0,-6.915 -4.461,-6.915 -4.027,-0.001 -4.568,3.493 -4.568,6.915 l -0.002,23.35 c 0,0.247 -0.202,0.448 -0.45,0.448 l -9.873,-0.001 c -0.248,0 -0.449,-0.2 -0.449,-0.448 l 0.002,-23.35 c 0,-5.525 0.555,-8.442 3.985,-12.213 3.662,-3.965 9.694,-4.272 11.457,-4.272 4.582,0 8.33,1.451 11.133,4.317 2.469,2.519 3.995,5.434 3.995,12.17 L 0.448,-0.448 C 0.448,-0.201 0.248,0 0,0" /></g><g
           transform="translate(516.9685,80.5279)"
           id="g88"><path
             id="path90"
             style="fill:#24376d;fill-opacity:1;fill-rule:nonzero;stroke:none"
             d="m 0,0 -9.451,-0.001 c -0.12,0 -0.236,-0.047 -0.321,-0.132 -0.085,-0.089 -0.129,-0.202 -0.129,-0.324 l 0.393,-22.832 -14.193,23.075 c -0.078,0.13 -0.225,0.213 -0.382,0.213 l -8.511,-0.001 c -0.248,0 -0.45,-0.2 -0.45,-0.448 l 0.002,-38.658 c 0,-0.248 0.203,-0.449 0.451,-0.449 l 9.456,0.001 h 0.017 c 0.248,0 0.45,0.2 0.45,0.448 0,0.048 -0.011,0.093 -0.022,0.133 l -0.249,21.957 13.992,-22.325 c 0.085,-0.13 0.228,-0.212 0.38,-0.212 h 8.569 c 0.248,0 0.452,0.201 0.452,0.449 L 0.452,-0.448 C 0.451,-0.201 0.248,0 0,0" /></g><g
           transform="translate(533.8853,80.5289)"
           id="g92"><path
             id="path94"
             style="fill:#24376d;fill-opacity:1;fill-rule:nonzero;stroke:none"
             d="m 0,0 -9.87,-0.001 c -0.248,0 -0.45,-0.2 -0.45,-0.448 l 0.002,-38.658 c 0,-0.248 0.202,-0.448 0.45,-0.448 h 9.87 c 0.248,0 0.449,0.201 0.449,0.449 L 0.448,-0.448 C 0.448,-0.201 0.248,0 0,0" /></g><g
           transform="translate(559.743,49.8168)"
           id="g96"><path
             id="path98"
             style="fill:#24376d;fill-opacity:1;fill-rule:nonzero;stroke:none"
             d="m 0,0 c -6.629,0 -10.206,5.692 -10.206,11.041 -0.001,5.252 3.541,10.835 10.104,10.836 6.926,0 10.048,-6.428 10.048,-10.992 C 9.946,6.364 6.86,0 0,0 m -0.155,31.445 c -10.464,-0.001 -16.924,-6.766 -19.275,-12.559 -1.025,-2.519 -1.546,-5.354 -1.546,-8.422 0,-5.05 2.085,-10.091 5.724,-13.827 3.895,-4.002 9.237,-6.208 15.044,-6.208 11.738,10e-4 20.927,9.012 20.926,20.506 -0.001,11.503 -9.171,20.511 -20.873,20.51" /></g><g
           transform="translate(618.374,80.0855)"
           id="g100"><path
             id="path102"
             style="fill:#24376d;fill-opacity:1;fill-rule:nonzero;stroke:none"
             d="m 0,0 c 0,0.248 -0.2,0.448 -0.448,0.448 h -9.454 c -0.118,0 -0.237,-0.048 -0.321,-0.133 -0.084,-0.088 -0.129,-0.202 -0.126,-0.324 l 0.393,-22.829 -14.19,23.072 c -0.082,0.13 -0.225,0.213 -0.38,0.213 l -8.516,-0.001 c -0.248,0 -0.448,-0.2 -0.448,-0.448 l 0.002,-38.658 c 0,-0.248 0.2,-0.448 0.448,-0.448 h 9.454 0.014 c 0.247,0 0.448,0.201 0.448,0.449 0,0.047 -0.003,0.092 -0.018,0.132 l -0.243,21.957 13.993,-22.324 c 0.078,-0.13 0.225,-0.213 0.38,-0.213 l 8.566,10e-4 c 0.248,0 0.448,0.2 0.448,0.448 z" /></g><g
           transform="translate(249.687,61.1314)"
           id="g104"><path
             id="path106"
             style="fill:#24376d;fill-opacity:1;fill-rule:nonzero;stroke:none"
             d="m 0,0 c 0,-4.93 -2.072,-9.286 -5.964,-12.569 -4.388,-3.095 -9.693,-3.096 -13.202,-3.096 h -5.226 l -0.002,31.224 h 5.226 C -13.214,15.56 -9.773,14.76 -6.495,12.626 -2.428,9.668 0,4.944 0,0 m -4.292,16.707 c -3.195,2.07 -8.067,3.305 -13.023,3.305 l -11.45,-0.001 c -0.248,0 -0.451,-0.198 -0.451,-0.446 l 0.003,-39.232 c 0,-0.248 0.202,-0.449 0.45,-0.449 l 11.451,0.001 c 4.973,0 9.839,1.236 13.022,3.302 8.673,5.536 9.111,14.844 9.111,16.652 0,5.409 -2.394,12.68 -9.113,16.868" /></g><g
           transform="translate(281.6371,45.4697)"
           id="g108"><path
             id="path110"
             style="fill:#24376d;fill-opacity:1;fill-rule:nonzero;stroke:none"
             d="m 0,0 -17.102,-0.001 v 13.577 l 16.519,10e-4 c 0.248,0 0.448,0.198 0.448,0.446 v 3.552 c 0,0.248 -0.201,0.45 -0.449,0.45 l -16.519,-10e-4 v 13.199 l 17.101,0.001 c 0.248,0 0.448,0.2 0.448,0.448 v 3.558 c 0,0.248 -0.2,0.447 -0.448,0.447 l -21.473,-0.002 c -0.248,0 -0.45,-0.198 -0.45,-0.446 l 0.002,-39.232 c 0,-0.248 0.203,-0.449 0.451,-0.449 L 0,-4.451 c 0.248,10e-4 0.449,0.201 0.449,0.449 L 0.448,-0.45 C 0.448,-0.2 0.248,0 0,0" /></g><g
           transform="translate(192.6251,144.7096)"
           id="g112"><path
             id="path114"
             style="fill:#24376d;fill-opacity:1;fill-rule:nonzero;stroke:none"
             d="M 0,0 C 0,1.198 -0.862,2.173 -1.921,2.173 -2.977,2.173 -3.836,1.198 -3.836,0 l 0.006,-101.48 c 10e-4,-1.2 0.861,-2.175 1.916,-2.175 1.059,0 1.921,0.975 1.921,2.175 z" /></g></g></g></g></svg>